<svg width="30" height="30" viewBox="0 0 30 30" fill="none" xmlns="http://www.w3.org/2000/svg">
<path d="M21.25 7.5H8.75003M21.25 7.5H22.8859C25.493 7.5 26.7966 7.5 27.5419 8.3327C28.2872 9.16539 28.1433 10.461 27.8553 13.0522L27.4855 16.3804C26.8979 21.6695 26.604 24.3141 24.8243 25.907C23.0445 27.5 20.363 27.5 15 27.5C9.63703 27.5 6.95553 27.5 5.17578 25.907C3.39604 24.3141 3.1022 21.6695 2.51451 16.3804L2.14471 13.0522C1.8568 10.461 1.71285 9.16539 2.45815 8.3327C3.20345 7.5 4.50701 7.5 7.11413 7.5H8.75003M21.25 7.5C21.25 4.04822 18.4518 1.25 15 1.25C11.6335 1.25 8.88862 3.91173 8.75511 7.24552C8.75173 7.32992 8.75003 7.41476 8.75003 7.5" stroke="white" stroke-width="1.5"/>
<path d="M22.5 12.5C22.5 13.1904 21.9404 13.75 21.25 13.75C20.5596 13.75 20 13.1904 20 12.5C20 11.8096 20.5596 11.25 21.25 11.25C21.9404 11.25 22.5 11.8096 22.5 12.5Z" fill="white"/>
<path d="M10 12.5C10 13.1904 9.44036 13.75 8.75 13.75C8.05964 13.75 7.5 13.1904 7.5 12.5C7.5 11.8096 8.05964 11.25 8.75 11.25C9.44036 11.25 10 11.8096 10 12.5Z" fill="white"/>
</svg>
