<svg width="30" height="30" viewBox="0 0 30 30" fill="none" xmlns="http://www.w3.org/2000/svg">
<path d="M2.5 5.7C2.5 4.57989 2.5 4.01984 2.71799 3.59202C2.90973 3.21569 3.21569 2.90973 3.59202 2.71799C4.01984 2.5 4.57989 2.5 5.7 2.5H9.3C10.4201 2.5 10.9802 2.5 11.408 2.71799C11.7843 2.90973 12.0903 3.21569 12.282 3.59202C12.5 4.01984 12.5 4.57989 12.5 5.7V9.3C12.5 10.4201 12.5 10.9802 12.282 11.408C12.0903 11.7843 11.7843 12.0903 11.408 12.282C10.9802 12.5 10.4201 12.5 9.3 12.5H5.7C4.57989 12.5 4.01984 12.5 3.59202 12.282C3.21569 12.0903 2.90973 11.7843 2.71799 11.408C2.5 10.9802 2.5 10.4201 2.5 9.3V5.7Z" stroke="white" stroke-width="1.5" stroke-linecap="round" stroke-linejoin="round"/>
<path d="M17.5 5.7C17.5 4.57989 17.5 4.01984 17.718 3.59202C17.9097 3.21569 18.2157 2.90973 18.592 2.71799C19.0198 2.5 19.5799 2.5 20.7 2.5H24.3C25.4201 2.5 25.9802 2.5 26.408 2.71799C26.7843 2.90973 27.0903 3.21569 27.282 3.59202C27.5 4.01984 27.5 4.57989 27.5 5.7V9.3C27.5 10.4201 27.5 10.9802 27.282 11.408C27.0903 11.7843 26.7843 12.0903 26.408 12.282C25.9802 12.5 25.4201 12.5 24.3 12.5H20.7C19.5799 12.5 19.0198 12.5 18.592 12.282C18.2157 12.0903 17.9097 11.7843 17.718 11.408C17.5 10.9802 17.5 10.4201 17.5 9.3V5.7Z" stroke="white" stroke-width="1.5" stroke-linecap="round" stroke-linejoin="round"/>
<path d="M2.5 20.7C2.5 19.5799 2.5 19.0198 2.71799 18.592C2.90973 18.2157 3.21569 17.9097 3.59202 17.718C4.01984 17.5 4.57989 17.5 5.7 17.5H9.3C10.4201 17.5 10.9802 17.5 11.408 17.718C11.7843 17.9097 12.0903 18.2157 12.282 18.592C12.5 19.0198 12.5 19.5799 12.5 20.7V24.3C12.5 25.4201 12.5 25.9802 12.282 26.408C12.0903 26.7843 11.7843 27.0903 11.408 27.282C10.9802 27.5 10.4201 27.5 9.3 27.5H5.7C4.57989 27.5 4.01984 27.5 3.59202 27.282C3.21569 27.0903 2.90973 26.7843 2.71799 26.408C2.5 25.9802 2.5 25.4201 2.5 24.3V20.7Z" stroke="white" stroke-width="1.5" stroke-linecap="round" stroke-linejoin="round"/>
<path d="M17.5 20.7C17.5 19.5799 17.5 19.0198 17.718 18.592C17.9097 18.2157 18.2157 17.9097 18.592 17.718C19.0198 17.5 19.5799 17.5 20.7 17.5H24.3C25.4201 17.5 25.9802 17.5 26.408 17.718C26.7843 17.9097 27.0903 18.2157 27.282 18.592C27.5 19.0198 27.5 19.5799 27.5 20.7V24.3C27.5 25.4201 27.5 25.9802 27.282 26.408C27.0903 26.7843 26.7843 27.0903 26.408 27.282C25.9802 27.5 25.4201 27.5 24.3 27.5H20.7C19.5799 27.5 19.0198 27.5 18.592 27.282C18.2157 27.0903 17.9097 26.7843 17.718 26.408C17.5 25.9802 17.5 25.4201 17.5 24.3V20.7Z" stroke="white" stroke-width="1.5" stroke-linecap="round" stroke-linejoin="round"/>
</svg>
