<svg width="30" height="30" viewBox="0 0 30 30" fill="none" xmlns="http://www.w3.org/2000/svg">
<path d="M10 28.0079C11.254 28.1598 12.8453 28.1598 15 28.1598C17.1547 28.1598 18.746 28.1598 20 28.0079M10 28.0079C8.85592 27.8693 7.99257 27.6043 7.2383 27.0975C7.11147 27.0122 6.98781 26.9224 6.86756 26.8281C5.36863 25.6528 4.73199 23.6934 3.45869 19.7746C2.1854 15.8558 1.54876 13.8964 2.07056 12.0645C2.11242 11.9175 2.15966 11.7721 2.21217 11.6286C2.8668 9.83986 4.53356 8.62889 7.86708 6.20695C11.2006 3.785 12.8674 2.57403 14.7709 2.5042C14.9236 2.4986 15.0764 2.4986 15.2291 2.5042C17.1327 2.57403 18.7994 3.785 22.1329 6.20695C25.4665 8.62889 27.1332 9.83986 27.7878 11.6286C27.8404 11.7721 27.8876 11.9175 27.9294 12.0645C28.4513 13.8964 27.8146 15.8558 26.5413 19.7746C25.268 23.6934 24.6314 25.6528 23.1325 26.8281C23.0122 26.9224 22.8885 27.0122 22.7617 27.0975C22.0074 27.6043 21.1441 27.8693 20 28.0079M10 28.0079V27.8996V23.5246C10 20.7632 12.2386 18.5246 15 18.5246C17.7614 18.5246 20 20.7632 20 23.5246V27.8996V28.0079" stroke="#FBFBFB" stroke-width="1.5"/>
</svg>
